<?xml version="1.0" encoding="UTF-8"?>
<level>
  <owner>stolbitsa</owner>
  <repo>sinijtraktor</repo>
  <version>v1.0.0</version>
  <next number="1" owner="stolbitsa" repo="v-lesu-rodilas-elochka"/>
  <readme>
    <en>7552b552f8d14b726743522bdf21a8d34775464af17845c81981fbc19084b020</en>
    <ru>1be9e5a94ef61f555537b1cb231aa276c99338c3b92ddd43fe1a740cafbd525c</ru>
  </readme>
  <license>b1b99f5538d1fd3702219bff50c665196dfa42f6ee755c37fe41a6178d6bc6e5</license>
  <exercise number="1">
    <scale>major</scale>
    <bpm>120</bpm>
    <lowestNote>18</lowestNote>
    <tonalities>10</tonalities>
    <video name="1.mp4" size="1459565" type="video/mp4">5e7766b626ca28373603b1b78f46c3004128e1f1d8697ea6ecba5398e22bd205</video>
    <notes>
      <note number="1" values="18" ticks="0" durationTicks="34" ppq="96" velocity="0.982"/>
      <note number="2" values="38" ticks="34" durationTicks="13" ppq="96" velocity="0.974"/>
      <note number="3" values="38" ticks="51" durationTicks="140" ppq="96" velocity="0.972"/>
      <note number="4" values="48" ticks="193" durationTicks="46" ppq="96" velocity="0.913"/>
      <note number="5" values="28" ticks="244" durationTicks="43" ppq="96" velocity="0.913"/>
      <note number="6" values="18" ticks="292" durationTicks="95" ppq="96" velocity="0.913"/>
    </notes>
  </exercise>
  <exercise number="2">
    <scale>major</scale>
    <bpm>120</bpm>
    <lowestNote>1</lowestNote>
    <tonalities>9</tonalities>
    <video name="2.mp4" size="1484230" type="video/mp4">a90f7764c0b9fa770d1b00f63b0a52e8562420ed70e0121ea6b636dfa97d5b0a</video>
    <notes>
      <note number="1" values="1" ticks="224" durationTicks="324" ppq="192" velocity="0.219"/>
      <note number="2" values="18" ticks="560" durationTicks="189" ppq="192" velocity="0.224"/>
      <note number="3" values="18" ticks="384" durationTicks="191" ppq="192" velocity="0.224"/>
      <note number="4" values="18" ticks="576" durationTicks="191" ppq="192" velocity="0.224"/>
      <note number="5" values="18" ticks="768" durationTicks="191" ppq="192" velocity="0.224"/>
      <note number="6" values="18" ticks="960" durationTicks="191" ppq="192" velocity="0.224"/>
      <note number="7" values="18" ticks="1152" durationTicks="191" ppq="192" velocity="0.224"/>
    </notes>
  </exercise>
  <exercise number="3">
    <scale>major</scale>
    <bpm>120</bpm>
    <lowestNote>1</lowestNote>
    <tonalities>1,2,3,4,5,6,7,8,9,10,11,12</tonalities>
    <video name="3.mp4" size="1449932" type="video/mp4">5e18dc2d30496f05940bf92ca104e7a123d8895e49ea38e79fc50078f2a08d88</video>
    <notes>
      <note number="1" values="1" ticks="0" durationTicks="105" ppq="96" velocity="0.843"/>
      <note number="2" values="18" ticks="56" durationTicks="91" ppq="96" velocity="0.913"/>
      <note number="3" values="1" ticks="146" durationTicks="208" ppq="96" velocity="0.874"/>
      <note number="4" values="18" ticks="196" durationTicks="161" ppq="96" velocity="0.921"/>
      <note number="5" values="18" ticks="384" durationTicks="95" ppq="96" velocity="0.921"/>
      <note number="6" values="18" ticks="480" durationTicks="95" ppq="96" velocity="0.921"/>
      <note number="7" values="18" ticks="576" durationTicks="95" ppq="96" velocity="0.921"/>
      <note number="8" values="18" ticks="672" durationTicks="95" ppq="96" velocity="0.921"/>
    </notes>
  </exercise>
  <exercise number="4">
    <scale>major</scale>
    <bpm>120</bpm>
    <lowestNote>1</lowestNote>
    <tonalities>1,2,3,4,5,6,7,8,9,10,11,12</tonalities>
    <video name="4.mp4" size="850897" type="video/mp4">f1f401ae1b2dfaad09ad55e655b212e68c0caa6fd1ef74c27faaabbf88664cd6</video>
    <notes>
      <note number="1" values="1,18" ticks="0" durationTicks="105" ppq="96" velocity="0.843"/>
      <note number="2" values="1,18" ticks="56" durationTicks="91" ppq="96" velocity="0.913"/>
      <note number="3" values="1,18" ticks="146" durationTicks="208" ppq="96" velocity="0.874"/>
      <note number="4" values="1,18" ticks="196" durationTicks="161" ppq="96" velocity="0.921"/>
      <note number="5" values="1,18" ticks="384" durationTicks="95" ppq="96" velocity="0.921"/>
    </notes>
  </exercise>
  <exercise number="5">
    <scale>major</scale>
    <bpm>120</bpm>
    <lowestNote>1</lowestNote>
    <tonalities>1,2,3,4,5,6,7,8,9,10,11,12</tonalities>
    <video name="5.mp4" size="1323389" type="video/mp4">c09e59c3c08e77abe767c0b228c4bc1134632e957098bdd2515112ffc9370e41</video>
    <notes>
      <note number="1" values="1,18" ticks="0" durationTicks="105" ppq="96" velocity="0.843"/>
      <note number="2" values="1,18" ticks="56" durationTicks="91" ppq="96" velocity="0.913"/>
      <note number="3" values="1,18" ticks="146" durationTicks="208" ppq="96" velocity="0.874"/>
      <note number="4" values="1,18" ticks="196" durationTicks="161" ppq="96" velocity="0.921"/>
      <note number="5" values="1,18" ticks="384" durationTicks="95" ppq="96" velocity="0.921"/>
      <note number="6" values="1,18" ticks="480" durationTicks="95" ppq="96" velocity="0.921"/>
    </notes>
  </exercise>
  <exercise number="6">
    <scale>major</scale>
    <bpm>120</bpm>
    <lowestNote>1</lowestNote>
    <tonalities>3</tonalities>
    <video name="6.mp4" size="1675676" type="video/mp4">ce0d4ccb8d343b7518f63f808f3e0eef67ef72037257151d38f0e852c40d8bfb</video>
    <notes>
      <note number="1" values="1" ticks="134" durationTicks="85" ppq="192" velocity="0.803"/>
      <note number="2" values="18" ticks="253" durationTicks="132" ppq="192" velocity="0.803"/>
      <note number="3" values="1,18" ticks="191" durationTicks="95" ppq="96" velocity="0.913"/>
      <note number="4" values="1,18" ticks="191" durationTicks="192" ppq="96" velocity="0.913"/>
      <note number="5" values="1,18" ticks="384" durationTicks="95" ppq="96" velocity="0.913"/>
      <note number="6" values="1,18" ticks="480" durationTicks="95" ppq="96" velocity="0.913"/>
    </notes>
  </exercise>
  <exercise number="7">
    <scale>major</scale>
    <bpm>120</bpm>
    <lowestNote>1</lowestNote>
    <tonalities>1,2,3,4,5,6,7,8,9,10,11,12</tonalities>
    <video name="7.mp4" size="1262863" type="video/mp4">22dd35dddda10cfe268ba9175bfef6f5ea28af6eec87ab91e7ec5ec6fc903a38</video>
    <notes>
      <note number="1" values="1,18" ticks="0" durationTicks="105" ppq="96" velocity="0.843"/>
      <note number="2" values="1,18" ticks="56" durationTicks="91" ppq="96" velocity="0.913"/>
      <note number="3" values="1,18" ticks="146" durationTicks="208" ppq="96" velocity="0.874"/>
      <note number="4" values="1,18" ticks="196" durationTicks="161" ppq="96" velocity="0.921"/>
      <note number="5" values="1,18" ticks="384" durationTicks="95" ppq="96" velocity="0.921"/>
      <note number="6" values="1,18" ticks="480" durationTicks="95" ppq="96" velocity="0.921"/>
      <note number="7" values="1,18" ticks="576" durationTicks="95" ppq="96" velocity="0.921"/>
      <note number="8" values="1,18" ticks="672" durationTicks="95" ppq="96" velocity="0.921"/>
    </notes>
  </exercise>
  <exercise number="8">
    <scale>major</scale>
    <bpm>120</bpm>
    <lowestNote>1</lowestNote>
    <tonalities>1,2,3,4,5,6,7,8,9,10,11,12</tonalities>
    <video name="8.mp4" size="1432816" type="video/mp4">9b2a8750f651ca97d10c0b39c3af8d22a100829c39efdc4273e20f44e35c355f</video>
    <notes>
      <note number="1" values="1,18" ticks="0" durationTicks="105" ppq="96" velocity="0.843"/>
      <note number="2" values="1,18" ticks="56" durationTicks="91" ppq="96" velocity="0.913"/>
      <note number="3" values="1,18" ticks="146" durationTicks="208" ppq="96" velocity="0.874"/>
      <note number="4" values="1,18" ticks="196" durationTicks="161" ppq="96" velocity="0.921"/>
      <note number="5" values="1,18" ticks="384" durationTicks="95" ppq="96" velocity="0.921"/>
    </notes>
  </exercise>
  <exercise number="9">
    <scale>major</scale>
    <bpm>120</bpm>
    <lowestNote>1</lowestNote>
    <tonalities>3</tonalities>
    <video name="9.mp4" size="1606026" type="video/mp4">933452e0d29ca8f11e4dd8107fe5de463e461e11830dcdfd1b94d95d559f3460</video>
    <notes>
      <note number="1" values="1" ticks="175" durationTicks="151" ppq="192" velocity="0.354"/>
      <note number="2" values="18" ticks="362" durationTicks="358" ppq="192" velocity="0.366"/>
      <note number="3" values="1,18" ticks="191" durationTicks="95" ppq="96" velocity="0.913"/>
      <note number="4" values="1,18" ticks="191" durationTicks="192" ppq="96" velocity="0.913"/>
      <note number="5" values="1,18" ticks="384" durationTicks="95" ppq="96" velocity="0.913"/>
      <note number="6" values="1,18" ticks="480" durationTicks="95" ppq="96" velocity="0.913"/>
    </notes>
  </exercise>
  <exercise number="10">
    <scale>major</scale>
    <bpm>120</bpm>
    <lowestNote>1</lowestNote>
    <tonalities>1,2,3,4,5,6,7,8,9,10,11,12</tonalities>
    <video name="10.mp4" size="1055702" type="video/mp4">143206183ad1bfef0de8a81a0b20543e7685c0bbe4a37e5890b88e8afcc4af08</video>
    <notes>
      <note number="1" values="1,18" ticks="0" durationTicks="105" ppq="96" velocity="0.843"/>
      <note number="2" values="1,18" ticks="56" durationTicks="91" ppq="96" velocity="0.913"/>
      <note number="3" values="1,18" ticks="146" durationTicks="208" ppq="96" velocity="0.874"/>
      <note number="4" values="1,18" ticks="196" durationTicks="161" ppq="96" velocity="0.921"/>
      <note number="5" values="1,18" ticks="384" durationTicks="95" ppq="96" velocity="0.921"/>
    </notes>
  </exercise>
  <exercise number="11">
    <scale>major</scale>
    <bpm>120</bpm>
    <lowestNote>1</lowestNote>
    <tonalities>1,2,3,4,5,6,7,8,9,10,11,12</tonalities>
    <video name="11.mp4" size="968389" type="video/mp4">e0da0674f5d15c8d8632473a100e6df8c13ba895ba73cfdd3425a801f4aa1112</video>
    <notes>
      <note number="1" values="1,18" ticks="0" durationTicks="105" ppq="96" velocity="0.843"/>
      <note number="2" values="1,18" ticks="56" durationTicks="91" ppq="96" velocity="0.913"/>
      <note number="3" values="1,18" ticks="146" durationTicks="208" ppq="96" velocity="0.874"/>
      <note number="4" values="1,18" ticks="196" durationTicks="161" ppq="96" velocity="0.921"/>
      <note number="5" values="1,18" ticks="384" durationTicks="95" ppq="96" velocity="0.921"/>
      <note number="6" values="1,18" ticks="480" durationTicks="95" ppq="96" velocity="0.921"/>
      <note number="7" values="1,18" ticks="576" durationTicks="95" ppq="96" velocity="0.921"/>
    </notes>
  </exercise>
</level>
